#!OML:ASF F:\twosubjects\two\Thursday\Session 1\justin.ASF
:FULLY-SPECIFIED
:DEGREES
457
root 25.3284 15.7536 -12.0445 9.38921 -48.8053 0.606292
lowerback 33.3961 3.8808 -2.18171
upperback 8.5757 4.05195 3.80167
thorax -8.03063 1.67222 3.72531
lowerneck -10.0999 -10.9079 -11.788
upperneck -23.7404 -12.4805 16.7505
head -3.52708 -6.55818 7.09121
rclavicle 2.70347e-014 5.08889e-014
rhumerus -20.9317 -15.671 -73.9245
rradius 61.4131
rwrist -9.06757
rhand -22.7435 14.9996
rfingers 7.12502
rthumb 3.69081 -14.9482
lclavicle 2.70347e-014 5.08889e-014
lhumerus -25.7659 -12.0248 90.9664
lradius 62.5853
lwrist -15.4331
lhand -6.17829 34.9455
lfingers 7.12502
lthumb 19.661 63.9713
rfemur -43.7315 -9.48832 -2.90214
rtibia 70.0039
rfoot -11.0103 -11.1873
rtoes 4.04687
lfemur -35.1953 18.6799 -7.65273
ltibia 64.611
lfoot -30.9585 -7.08724
ltoes -30.349
458
root 25.2875 15.73 -12.141 9.03 -48.6173 0.838386
lowerback 33.2739 3.86895 -2.00211
upperback 8.52693 4.09447 3.68013
thorax -8.01837 1.697 3.48841
lowerneck -9.33994 -10.716 -11.739
upperneck -24.178 -12.2542 16.7901
head -3.80369 -6.47313 7.18393
rclavicle 8.66701e-014 -3.18055e-014
rhumerus -21.0469 -16.6545 -74.2305
rradius 60.6876
rwrist -8.48014
rhand -23.3025 15.1725
rfingers 7.12502
rthumb 3.15095 -14.784
lclavicle 8.66701e-014 -3.18055e-014
lhumerus -26.0633 -11.5586 91.006
lradius 62.3145
lwrist -15.5296
lhand -6.09139 34.7492
lfingers 7.12502
lthumb 19.7445 63.7664
rfemur -42.3784 -8.85683 -3.98062
rtibia 69.1912
rfoot -8.96061 -12.5107
rtoes 8.6066
lfemur -34.7884 18.7478 -7.48794
ltibia 64.0679
lfoot -31.4177 -7.20779
ltoes -29.9886
459
root 25.2385 15.7108 -12.2387 8.29869 -48.541 1.79065
lowerback 32.8938 3.97963 -2.62325
upperback 8.52908 4.05137 3.6823
thorax -7.90626 1.68692 3.84916
lowerneck -10.3351 -11.0154 -11.9552
upperneck -23.0676 -12.6213 16.6085
head -3.27061 -6.57871 7.00514
rclavicle -1.11319e-014 9.93923e-014
rhumerus -20.9858 -16.9141 -74.2551
rradius 59.9037
rwrist -8.12091
rhand -23.5962 15.5533
rfingers 7.12502
rthumb 2.8673 -14.4072
lclavicle -1.11319e-014 9.93923e-014
lhumerus -26.2402 -10.3451 91.3129
lradius 61.9232
lwrist -15.7695
lhand -5.64718 34.0408
lfingers 7.12502
lthumb 20.1715 63.0135
rfemur -41.1724 -8.28779 -5.53608
rtibia 68.3824
rfoot -9.25187 -12.6099
rtoes 5.97767
lfemur -34.6253 18.8392 -7.97165
ltibia 63.5829
lfoot -31.3784 -6.37224
ltoes -28.9255
460
root 25.189 15.687 -12.3341 7.86951 -48.4109 2.47979
lowerback 32.4743 4.03963 -3.00671
upperback 8.4792 4.02801 3.66008
thorax -7.81855 1.68683 4.0514
lowerneck -11.8722 -11.5871 -12.0317
upperneck -21.4959 -13.3338 16.3844
head -2.49551 -6.84411 6.70832
rclavicle 0 -6.44062e-014
rhumerus -21.0146 -17.2109 -74.228
rradius 59.1716
rwrist -7.99493
rhand -23.8566 15.6629
rfingers 7.12502
rthumb 2.61586 -14.3008
lclavicle 0 -6.44062e-014
lhumerus -26.3363 -9.56732 91.4067
lradius 61.5394
lwrist -15.2553
lhand -5.27904 33.7113
lfingers 7.12502
lthumb 20.5253 62.6463
rfemur -40.0735 -7.76119 -6.83067
rtibia 67.5731
rfoot -9.10825 -12.3159
rtoes 4.07934
lfemur -34.5535 18.7806 -8.21299
ltibia 63.197
lfoot -31.6214 -5.63824
ltoes -27.3699
461
root 25.1402 15.6537 -12.4317 7.90033 -48.2327 2.56443
lowerback 32.1058 4.0313 -2.5769
upperback 8.43004 4.15393 3.45338
thorax -7.69453 1.75227 3.57044
lowerneck -12.8432 -12.0516 -11.3479
upperneck -20.6999 -14.0312 15.7712
head -2.14275 -7.17162 6.2614
rclavicle 2.14687e-014 -1.82882e-014
rhumerus -21.2934 -18.1812 -74.3866
rradius 58.7364
rwrist -8.11962
rhand -23.9936 15.0554
rfingers 7.12502
rthumb 2.48351 -14.9098
lclavicle 2.14687e-014 -1.82882e-014
lhumerus -26.399 -9.7707 91.1061
lradius 61.4731
lwrist -13.9454
lhand -5.25991 34.1081
lfingers 7.12502
lthumb 20.5437 63.0411
rfemur -39.0128 -7.11659 -7.59853
rtibia 66.7626
rfoot -9.06411 -11.714
rtoes 0.827182
lfemur -34.4942 18.594 -7.88702
ltibia 62.8254
lfoot -32.2746 -6.79729
ltoes -26.7513
462
root 25.0816 15.6309 -12.5411 7.75062 -48.1169 2.80687
lowerback 31.5412 4.11532 -2.56617
upperback 8.79725 4.28658 3.27013
thorax -7.69309 1.84257 3.61313
lowerneck -12.6005 -11.9518 -10.8175
upperneck -21.096 -13.9949 15.3512
head -2.38263 -7.18647 6.09828
rclavicle -8.90555e-014 -1.59028e-015
rhumerus -21.5011 -18.7614 -74.4137
rradius 58.3365
rwrist -8.50844
rhand -23.6875 14.5423
rfingers 7.12502
rthumb 2.77918 -15.4193
lclavicle -8.90555e-014 -1.59028e-015
lhumerus -26.5725 -9.60964 91.1151
lradius 61.6025
lwrist -12.7451
lhand -5.86028 34.8265
lfingers 7.12502
lthumb 19.9667 63.8207
rfemur -37.8967 -6.37071 -8.35361
rtibia 65.9266
rfoot -9.0867 -10.9702
rtoes -1.40829
lfemur -34.6152 18.4168 -7.67853
ltibia 62.3776
lfoot -31.1763 -5.67628
ltoes -25.5095
463
root 25.0123 15.6115 -12.662 7.29102 -48.0805 3.57735
lowerback 31.1949 4.37665 -3.29076
upperback 8.70285 4.43213 3.3592
thorax -7.7088 1.92495 4.08651
lowerneck -9.84017 -11.2088 -11.8515
upperneck -23.5785 -12.8971 16.586
head -3.47402 -6.73403 7.02246
rclavicle -1.51076e-014 5.725e-014
rhumerus -21.6191 -19.0672 -74.1666
rradius 57.5923
rwrist -8.41623
rhand -23.832 14.5837
rfingers 7.12502
rthumb 2.63965 -15.3797
lclavicle -1.51076e-014 5.725e-014
lhumerus -26.8521 -9.22189 91.4117
lradius 61.7364
lwrist -11.6943
lhand -6.29153 35.2743
lfingers 7.12502
lthumb 19.5521 64.3112
rfemur -36.9217 -5.74715 -9.33548
rtibia 65.0918
rfoot -9.17363 -9.95594
rtoes -5.97045
lfemur -34.6118 18.1505 -7.80809
ltibia 61.9171
lfoot -30.8801 -5.11831
ltoes -25.0098
464
root 24.943 15.5816 -12.7839 7.2257 -48.0251 3.97454
lowerback 30.6925 4.54365 -3.56875
upperback 8.54732 4.59978 3.38083
thorax -7.68994 2.01839 4.22002
lowerneck -9.82279 -11.5765 -12.7921
upperneck -23.3752 -13.2152 17.5712
head -3.20363 -6.86752 7.42856
rclavicle -1.59028e-015 -3.81667e-014
rhumerus -22.0944 -19.4742 -73.956
rradius 57.0833
rwrist -8.31337
rhand -24.6934 14.8049
rfingers 7.12502
rthumb 1.8077 -15.1672
lclavicle -1.59028e-015 -3.81667e-014
lhumerus -27.1826 -9.02953 91.4494
lradius 61.9456
lwrist -10.7259
lhand -5.95067 35.3798
lfingers 7.12502
lthumb 19.8798 64.383
rfemur -36.1513 -5.25778 -9.92719
rtibia 64.3146
rfoot -9.7097 -8.871
rtoes -13.5653
lfemur -34.4993 17.8723 -7.56538
ltibia 61.4691
lfoot -30.854 -5.40312
ltoes -24.2641
465
root 24.8846 15.5459 -12.9052 7.54448 -47.9323 3.73808
lowerback 30.2464 4.43443 -3.22297
upperback 8.55814 4.58646 3.42559
thorax -7.44737 2.0103 4.08953
lowerneck -9.98076 -11.6338 -13.4991
upperneck -23.391 -13.1525 18.1756
head -3.08042 -6.80864 7.71936
rclavicle 3.10104e-014 0
rhumerus -22.397 -19.6128 -73.9771
rradius 56.7804
rwrist -8.38962
rhand -24.8246 15.1461
rfingers 7.12502
rthumb 1.68096 -14.827
lclavicle 3.10104e-014 0
lhumerus -27.3815 -8.44534 91.2913
lradius 62.2311
lwrist -9.8548
lhand -5.74916 34.8555
lfingers 7.12502
lthumb 20.0735 63.8386
rfemur -35.3924 -4.75995 -9.97665
rtibia 63.5866
rfoot -10.7086 -7.87032
rtoes -20.8798
lfemur -34.5395 17.5837 -6.81963
ltibia 60.9669
lfoot -30.5326 -5.56752
ltoes -23.7267
466
root 24.826 15.5083 -13.0345 7.45348 -47.9384 3.94489
lowerback 30.0409 4.42687 -3.29266
upperback 8.72076 4.55591 3.45009
thorax -7.1697 1.98808 4.17885
lowerneck -10.8526 -11.7093 -13.8656
upperneck -23.2578 -13.1224 18.3464
head -2.87425 -6.74736 7.77227
rclavicle 2.62396e-014 -3.81667e-014
rhumerus -22.0503 -19.8202 -74.157
rradius 56.1285
rwrist -7.66205
rhand -24.4784 15.3977
rfingers 7.12502
rthumb 2.01531 -14.5725
lclavicle 2.62396e-014 -3.81667e-014
lhumerus -27.147 -7.79688 91.1878
lradius 62.356
lwrist -8.89958
lhand -5.74721 34.5492
lfingers 7.12502
lthumb 20.0753 63.5321
rfemur -34.6341 -4.3671 -10.2132
rtibia 62.8121
rfoot -12.4482 -7.05378
rtoes -29.1671
lfemur -34.5615 17.2659 -6.3926
ltibia 60.5594
lfoot -30.2836 -5.45717
ltoes -23.3062
467
root 24.7568 15.476 -13.1727 7.21477 -47.9483 4.40637
lowerback 29.7965 4.09202 -3.98229
upperback 8.84164 3.95587 3.63347
thorax -6.90774 1.69724 5.01447
lowerneck -11.7859 -11.5691 -15.3355
upperneck -22.696 -12.6865 18.8428
head -2.48734 -6.40572 8.11204
rclavicle 3.65764e-014 3.89618e-014
rhumerus -21.1033 -18.1258 -74.6463
rradius 55.2184
rwrist -7.03239
rhand -24.8856 15.2451
rfingers 7.12502
rthumb 1.62206 -14.7285
lclavicle 3.65764e-014 3.89618e-014
lhumerus -26.9249 -5.71293 90.9305
lradius 62.4139
lwrist -7.70507
lhand -5.66946 35.3186
lfingers 7.12502
lthumb 20.1501 64.2936
rfemur -33.8802 -4.12196 -10.4966
rtibia 61.9188
rfoot -14.8249 -6.49251
rtoes -35.5699
lfemur -34.7398 16.9543 -6.15405
ltibia 60.4753
lfoot -30.4086 -5.64466
ltoes -24.3496
